<svg width="15" height="15" viewBox="0 0 15 15" fill="none" xmlns="http://www.w3.org/2000/svg">
<path fill-rule="evenodd" clip-rule="evenodd" d="M4.4775 2.52539C4.7748 2.00762 5.33338 1.6582 5.97217 1.6582H11.5277C12.4775 1.6582 13.2499 2.43064 13.2499 3.38043V8.93598C13.2499 9.72206 12.7208 10.3867 12 10.5924V11.0809C12 11.2687 11.9787 11.4516 11.9385 11.6273C13.2461 11.429 14.2499 10.2984 14.2499 8.93598V3.38043C14.2499 1.87836 13.0298 0.658203 11.5277 0.658203H5.97217C4.76847 0.658203 3.74581 1.44177 3.38702 2.52605C3.40611 2.52561 3.42524 2.52539 3.44443 2.52539H4.4775Z" fill="#78909C"/>
<path d="M3.22222 3.52539H8.77778C10.0037 3.52539 11 4.52169 11 5.74761V11.3032C11 12.5291 10.0037 13.5254 8.77778 13.5254H3.21111C1.99259 13.5254 1 12.5365 1 11.3143V5.74761C1 4.52169 1.9963 3.52539 3.22222 3.52539Z" stroke="#78909C" stroke-linecap="round" stroke-linejoin="round"/>
</svg>
