<svg width="14" height="14" viewBox="0 0 14 14" fill="none" xmlns="http://www.w3.org/2000/svg">
<path d="M11.2245 6.02138H8.87771C8.40382 6.02138 8.10357 5.5134 8.33078 5.09631C8.46711 4.848 8.60019 4.60293 8.68296 4.43902C8.96211 3.88884 9.41978 2.63106 8.64077 1.87315C8.2188 1.46255 7.81307 1.44307 7.51282 1.52422C7.25315 1.59563 7.03406 1.76928 6.87988 1.99L4.08356 6.01002V12.5115H9.00755C9.30779 12.5115 9.56746 12.445 9.78818 12.359C10.2848 12.1658 10.6727 11.7682 10.8999 11.2862C11.2164 10.6127 11.9938 8.96377 12.3605 7.91535C13.0422 5.97107 11.2245 6.01976 11.2245 6.01976V6.02138Z" stroke="#78909C" stroke-linecap="round" stroke-linejoin="round"/>
<path d="M4.08358 6.02136H1.48688V12.5131H4.08358V6.02136Z" stroke="#78909C" stroke-linecap="round" stroke-linejoin="round"/>
</svg>
