<svg width="14" height="14" viewBox="0 0 14 14" fill="none" xmlns="http://www.w3.org/2000/svg">
<path d="M2.77551 7.97863H5.12228C5.59618 7.97863 5.89642 8.48661 5.66921 8.9037C5.53288 9.15201 5.3998 9.39707 5.31703 9.56099C5.03789 10.1112 4.58022 11.3689 5.35923 12.1269C5.78119 12.5375 6.18692 12.5569 6.48717 12.4758C6.74684 12.4044 6.96593 12.2307 7.12011 12.01L9.91643 7.98999V1.48688H4.99244C4.6922 1.48688 4.43253 1.55342 4.21181 1.63943C3.71519 1.83256 3.32731 2.23018 3.1001 2.7122C2.78362 3.38571 2.00624 5.03462 1.63945 6.08304C0.95782 8.02732 2.77551 7.97863 2.77551 7.97863Z" stroke="#78909C" stroke-linecap="round" stroke-linejoin="round"/>
<path d="M12.5131 1.48688H9.91644V7.97863H12.5131V1.48688Z" stroke="#78909C" stroke-linecap="round" stroke-linejoin="round"/>
</svg>
