<svg width="32" height="23" viewBox="0 0 32 23" fill="none" xmlns="http://www.w3.org/2000/svg">
<path d="M1 4C1 1.79086 2.79086 0 5 0H27C29.2091 0 31 1.79086 31 4V14.5C31 16.7091 29.2091 18.5 27 18.5H16H5C2.79086 18.5 1 16.7091 1 14.5V4Z" fill="#263238"/>
<path d="M16 23L12.5359 17.75L19.4641 17.75L16 23Z" fill="#263238"/>
<path d="M11.5779 8.2057C11.5779 6.91269 10.5437 5.86447 9.26787 5.86447C7.99208 5.86447 6.95782 6.91269 6.95782 8.2057C6.95782 9.49871 7.99208 10.5469 9.26787 10.5469C10.5437 10.5469 11.5779 9.49871 11.5779 8.2057Z" fill="white"/>
<path d="M24.0422 8.2057C24.0422 6.91269 23.0079 5.86447 21.7321 5.86447C20.4563 5.86447 19.4221 6.91269 19.4221 8.2057C19.4221 9.49871 20.4563 10.5469 21.7321 10.5469C23.0079 10.5469 24.0422 9.49871 24.0422 8.2057Z" fill="white"/>
</svg>
