<svg data-name="Layer 1" xmlns="http://www.w3.org/2000/svg" viewBox="0 0 128 128"><path d="M121.5 62.25H68.225l9.523-9.523a1.75 1.75 0 0 0-2.475-2.475L62.765 62.76a1.755 1.755 0 0 0-.221.271c-.025.038-.042.079-.064.118a1.045 1.045 0 0 0-.149.352c-.016.052-.036.1-.047.157a1.756 1.756 0 0 0 0 .685c.011.054.031.1.046.156a1.7 1.7 0 0 0 .053.17 1.732 1.732 0 0 0 .1.182c.022.039.039.081.065.119a1.755 1.755 0 0 0 .221.271l12.504 12.507a1.75 1.75 0 0 0 2.475-2.475l-9.523-9.523H121.5a1.75 1.75 0 0 0 0-3.5z"/><path d="M96 72.25A1.75 1.75 0 0 0 94.25 74v36.9H49.209V17.1H94.25V54a1.75 1.75 0 0 0 3.5 0V15.35A1.75 1.75 0 0 0 96 13.6H49.209V6.5a1.75 1.75 0 0 0-2.461-1.6L6.94 22.593a1.751 1.751 0 0 0-1.039 1.6v79.615a1.751 1.751 0 0 0 1.039 1.6L46.748 123.1a1.75 1.75 0 0 0 2.461-1.6v-7.1H96a1.75 1.75 0 0 0 1.75-1.75V74A1.75 1.75 0 0 0 96 72.25zm-50.291 46.558L9.4 102.67V25.33L45.709 9.192z"/><path d="M13.076 97.083a1.75 1.75 0 0 0 1.75-1.75V66.667a1.75 1.75 0 0 0-3.5 0v28.666a1.75 1.75 0 0 0 1.75 1.75z"/></svg>