<svg width="176" height="25" viewBox="0 0 176 25" fill="none" xmlns="http://www.w3.org/2000/svg">
<path d="M17.184 4.836L8.52 23.868C8.376 24.124 8.232 24.276 8.088 24.324C7.96 24.372 7.696 24.396 7.296 24.396H3.288L6.072 18.732C5.048 16.492 4.048 14.172 3.072 11.772C2.112 9.372 1.12 7.06 0.096 4.836H4.2C4.616 4.836 4.92 4.884 5.112 4.98C5.32 5.076 5.512 5.316 5.688 5.7L8.664 14.364C9.192 12.924 9.712 11.516 10.224 10.14C10.752 8.764 11.288 7.34 11.832 5.868C11.944 5.644 12.064 5.428 12.192 5.22C12.336 5.012 12.568 4.884 12.888 4.836H17.184ZM29.9214 11.484H18.3054V7.908H29.9214V11.484ZM43.3924 8.484C44.7204 8.884 45.7684 9.556 46.5364 10.5C47.3204 11.428 47.7124 12.58 47.7124 13.956C47.7124 14.996 47.4884 15.868 47.0404 16.572C46.6084 17.26 46.0404 17.812 45.3364 18.228C44.6164 18.676 43.8164 18.988 42.9364 19.164C42.0564 19.34 41.1924 19.428 40.3444 19.428L31.9924 19.284C32.0084 18.932 32.0244 18.556 32.0404 18.156C32.0724 17.74 32.1604 17.348 32.3044 16.98C32.4164 16.612 32.6004 16.3 32.8564 16.044C33.1124 15.788 33.4724 15.628 33.9364 15.564L39.0484 15.684C39.3684 15.684 39.7204 15.676 40.1044 15.66C40.4884 15.628 40.8564 15.556 41.2084 15.444C41.5284 15.332 41.8004 15.148 42.0244 14.892C42.2484 14.636 42.3604 14.3 42.3604 13.884C42.3604 13.468 42.2564 13.132 42.0484 12.876C41.8564 12.62 41.6084 12.396 41.3044 12.204C40.9844 12.028 40.3844 11.852 39.5044 11.676C38.6404 11.5 37.6324 11.316 36.4804 11.124C35.9204 11.044 35.3444 10.876 34.7524 10.62C34.1604 10.364 33.6324 10.012 33.1684 9.564C32.6724 9.132 32.2644 8.588 31.9444 7.932C31.6404 7.26 31.4884 6.468 31.4884 5.556C31.4884 4.596 31.7044 3.772 32.1364 3.084C32.5844 2.38 33.1844 1.796 33.9364 1.332C34.6564 0.883999 35.4644 0.555999 36.3604 0.347999C37.2724 0.139999 38.2004 0.0359988 39.1444 0.0359988L46.1044 0.299998C46.0884 1.116 46.0164 1.78 45.8884 2.292C45.7604 2.788 45.5924 3.164 45.3844 3.42C45.1444 3.692 44.8644 3.868 44.5444 3.948C44.2404 4.028 43.9044 4.068 43.5364 4.068L40.6804 3.828C40.3284 3.828 39.9284 3.836 39.4804 3.852C39.0484 3.852 38.6404 3.916 38.2564 4.044C37.8564 4.156 37.5204 4.34 37.2484 4.596C36.9924 4.852 36.8644 5.196 36.8644 5.628C36.8644 5.98 36.9444 6.276 37.1044 6.516C37.2644 6.74 37.4724 6.924 37.7284 7.068C37.9524 7.228 38.2164 7.356 38.5204 7.452C38.8404 7.548 39.1524 7.628 39.4564 7.692C39.5844 7.708 39.8164 7.748 40.1524 7.812C40.4884 7.876 40.8644 7.94 41.2804 8.004C41.6644 8.1 42.0564 8.188 42.4564 8.268C42.8564 8.348 43.1684 8.42 43.3924 8.484ZM66.6904 4.548C68.3224 4.548 69.5784 4.932 70.4584 5.7C71.3384 6.452 71.7784 7.78 71.7784 9.684V19.452H67.0744V11.412C67.0744 10.9 67.0584 10.46 67.0264 10.092C66.9944 9.724 66.9224 9.42 66.8104 9.18C66.6984 8.972 66.5304 8.82 66.3064 8.724C66.0824 8.612 65.7704 8.556 65.3704 8.556C65.0024 8.556 64.6904 8.636 64.4344 8.796C64.1784 8.956 63.9624 9.132 63.7864 9.324C63.5784 9.564 63.4104 9.804 63.2824 10.044V19.452H58.3384V11.412C58.3384 10.372 58.2184 9.636 57.9784 9.204C57.7544 8.772 57.2664 8.556 56.5144 8.556C56.1624 8.556 55.8584 8.636 55.6024 8.796C55.3624 8.956 55.1784 9.132 55.0504 9.324C54.8584 9.564 54.7144 9.804 54.6184 10.044V19.452H49.8904V4.74H54.2104V6.324C54.4664 5.94 54.7624 5.636 55.0984 5.412C55.4344 5.172 55.7624 4.988 56.0824 4.86C56.4504 4.732 56.8264 4.628 57.2104 4.548C57.9304 4.532 58.5704 4.58 59.1304 4.692C59.7064 4.804 60.2024 4.956 60.6184 5.148C61.0344 5.34 61.3704 5.548 61.6264 5.772C61.8984 5.98 62.0904 6.18 62.2024 6.372C62.5544 5.908 62.9864 5.564 63.4984 5.34C64.0264 5.1 64.5224 4.924 64.9864 4.812C65.5464 4.684 66.1144 4.596 66.6904 4.548ZM84.3731 4.932C85.7331 5.268 86.8051 5.916 87.5891 6.876C88.3891 7.836 88.7891 9.22 88.7891 11.028V19.452H80.7251C79.8771 19.452 79.0611 19.388 78.2771 19.26C77.4931 19.116 76.7971 18.852 76.1891 18.468C75.5651 18.1 75.0691 17.612 74.7011 17.004C74.3331 16.38 74.1491 15.58 74.1491 14.604C74.1491 13.66 74.3171 12.892 74.6531 12.3C75.0051 11.692 75.4851 11.212 76.0931 10.86C76.6851 10.508 77.3731 10.268 78.1571 10.14C78.9571 10.012 79.8131 9.964 80.7251 9.996C81.2531 9.996 81.7811 10.004 82.3091 10.02C82.8531 10.036 83.3891 10.044 83.9171 10.044C83.9011 9.564 83.7811 9.196 83.5571 8.94C83.3491 8.684 83.0851 8.5 82.7651 8.388C82.4131 8.276 82.0371 8.212 81.6371 8.196C81.2371 8.18 80.8131 8.172 80.3651 8.172H77.7251C76.9571 8.172 76.3491 7.908 75.9011 7.38C75.4691 6.836 75.2771 5.988 75.3251 4.836C75.7891 4.82 76.2851 4.788 76.8131 4.74C77.2771 4.692 77.7891 4.66 78.3491 4.644C78.9251 4.612 79.5171 4.596 80.1251 4.596C80.8611 4.596 81.6131 4.62 82.3811 4.668C83.1651 4.716 83.8291 4.804 84.3731 4.932ZM84.0131 13.02H81.2771C80.9411 13.02 80.6131 13.036 80.2931 13.068C79.9731 13.084 79.6851 13.148 79.4291 13.26C79.1731 13.372 78.9651 13.532 78.8051 13.74C78.6451 13.932 78.5651 14.204 78.5651 14.556C78.5651 14.924 78.6371 15.22 78.7811 15.444C78.9411 15.652 79.1571 15.82 79.4291 15.948C79.6851 16.076 79.9891 16.164 80.3411 16.212C80.7091 16.26 81.0851 16.284 81.4691 16.284H84.0131V13.02ZM96.5458 6.996C96.7058 6.788 96.9218 6.572 97.1938 6.348C97.4818 6.124 97.8098 5.908 98.1778 5.7C98.5458 5.492 98.9538 5.324 99.4018 5.196C99.8658 5.052 100.338 4.956 100.818 4.908L101.754 4.836V8.988L100.722 9.012C100.306 9.012 99.8498 9.092 99.3538 9.252C98.8738 9.412 98.4258 9.636 98.0098 9.924C97.5938 10.196 97.2418 10.516 96.9538 10.884C96.6818 11.252 96.5458 11.66 96.5458 12.108V19.452H91.6978V4.668H96.5458V6.996ZM112.675 16.044V19.356H109.411C108.291 19.356 107.331 19.108 106.531 18.612C105.747 18.1 105.219 17.428 104.947 16.596C104.883 16.34 104.835 16.1 104.803 15.876C104.787 15.636 104.779 15.356 104.779 15.036V8.7H102.379V5.052H104.779V0.179998H109.675V5.052H113.131V8.7H109.675V14.652C109.675 14.972 109.723 15.228 109.819 15.42C109.915 15.596 110.035 15.732 110.179 15.828C110.291 15.924 110.411 15.988 110.539 16.02C110.683 16.036 110.803 16.044 110.899 16.044H112.675Z" fill="white"/>
<path d="M125.452 3.684C124.428 3.684 123.572 3.828 122.884 4.116C122.196 4.388 121.644 4.78 121.228 5.292C120.812 5.82 120.516 6.46 120.34 7.212C120.18 7.948 120.1 8.788 120.1 9.732C120.1 10.596 120.18 11.396 120.34 12.132C120.5 12.852 120.788 13.484 121.204 14.028C121.604 14.588 122.148 15.02 122.836 15.324C123.54 15.612 124.436 15.756 125.524 15.756H127.012C127.588 15.756 128.052 15.82 128.404 15.948C128.772 16.06 129.052 16.252 129.244 16.524C129.42 16.812 129.548 17.18 129.628 17.628C129.724 18.076 129.796 18.636 129.844 19.308H125.092C124.452 19.308 123.772 19.268 123.052 19.188C122.348 19.108 121.652 18.964 120.964 18.756C120.244 18.564 119.548 18.3 118.876 17.964C118.22 17.628 117.636 17.196 117.124 16.668C116.244 15.724 115.62 14.676 115.252 13.524C114.884 12.356 114.7 11.06 114.7 9.636C114.7 6.532 115.564 4.172 117.292 2.556C119.02 0.939999 121.588 0.131999 124.996 0.131999H129.796C129.78 0.883999 129.708 1.484 129.58 1.932C129.468 2.38 129.324 2.732 129.148 2.988C128.956 3.244 128.716 3.42 128.428 3.516C128.14 3.612 127.804 3.668 127.42 3.684H125.452ZM140.771 4.548C141.651 4.548 142.459 4.7 143.195 5.004C143.947 5.292 144.603 5.7 145.163 6.228C145.691 6.756 146.107 7.404 146.411 8.172C146.731 8.924 146.891 9.764 146.891 10.692V19.356H142.019V11.628C142.019 10.572 141.795 9.812 141.347 9.348C140.915 8.884 140.331 8.644 139.595 8.628C139.131 8.628 138.723 8.692 138.371 8.82C138.035 8.948 137.755 9.092 137.531 9.252C137.275 9.444 137.051 9.652 136.859 9.876V19.356H131.987V0.179998H136.859V5.364C137.163 5.172 137.531 5.02 137.963 4.908C138.411 4.796 138.843 4.716 139.259 4.668C139.755 4.588 140.259 4.548 140.771 4.548ZM159.279 4.932C160.639 5.268 161.711 5.916 162.495 6.876C163.295 7.836 163.695 9.22 163.695 11.028V19.452H155.631C154.783 19.452 153.967 19.388 153.183 19.26C152.399 19.116 151.703 18.852 151.095 18.468C150.471 18.1 149.975 17.612 149.607 17.004C149.239 16.38 149.055 15.58 149.055 14.604C149.055 13.66 149.223 12.892 149.559 12.3C149.911 11.692 150.391 11.212 150.999 10.86C151.591 10.508 152.279 10.268 153.063 10.14C153.863 10.012 154.719 9.964 155.631 9.996C156.159 9.996 156.687 10.004 157.215 10.02C157.759 10.036 158.295 10.044 158.823 10.044C158.807 9.564 158.687 9.196 158.463 8.94C158.255 8.684 157.991 8.5 157.671 8.388C157.319 8.276 156.943 8.212 156.543 8.196C156.143 8.18 155.719 8.172 155.271 8.172H152.631C151.863 8.172 151.255 7.908 150.807 7.38C150.375 6.836 150.183 5.988 150.231 4.836C150.695 4.82 151.191 4.788 151.719 4.74C152.183 4.692 152.695 4.66 153.255 4.644C153.831 4.612 154.423 4.596 155.031 4.596C155.767 4.596 156.519 4.62 157.287 4.668C158.071 4.716 158.735 4.804 159.279 4.932ZM158.919 13.02H156.183C155.847 13.02 155.519 13.036 155.199 13.068C154.879 13.084 154.591 13.148 154.335 13.26C154.079 13.372 153.871 13.532 153.711 13.74C153.551 13.932 153.471 14.204 153.471 14.556C153.471 14.924 153.543 15.22 153.687 15.444C153.847 15.652 154.063 15.82 154.335 15.948C154.591 16.076 154.895 16.164 155.247 16.212C155.615 16.26 155.991 16.284 156.375 16.284H158.919V13.02ZM175.394 16.044V19.356H172.13C171.01 19.356 170.05 19.108 169.25 18.612C168.466 18.1 167.938 17.428 167.666 16.596C167.602 16.34 167.554 16.1 167.522 15.876C167.506 15.636 167.498 15.356 167.498 15.036V8.7H165.098V5.052H167.498V0.179998H172.394V5.052H175.85V8.7H172.394V14.652C172.394 14.972 172.442 15.228 172.538 15.42C172.634 15.596 172.754 15.732 172.898 15.828C173.01 15.924 173.13 15.988 173.258 16.02C173.402 16.036 173.522 16.044 173.618 16.044H175.394Z" fill="#7DAFFF"/>
</svg>
