<?xml version="1.0" encoding="utf-8"?>
<svg viewBox="0 0 512 505.97" shape-rendering="geometricPrecision" text-rendering="geometricPrecision" image-rendering="optimizeQuality" fill-rule="evenodd" clip-rule="evenodd" xmlns="http://www.w3.org/2000/svg">
  <path fill="#fff" d="M 295.881 314.12 L 177.68 348.3 L 209.037 221.789 L 295.881 314.12 Z M 80.99 3.91 L 281.1 3.91 L 212.462 57.984 L 72.88 56.05 C 69.33 56.05 57.944 88.72 57.944 92.28 L 56.977 446.092 L 429.169 446.091 C 432.519 446.091 436.367 421.928 436.367 418.568 L 439.269 315.105 L 502.05 238.96 L 502.05 421.47 C 502.05 466.09 462.18 505.97 417.56 505.97 L 46.7 505.97 C 21.03 505.97 0 481.37 0 455.77 L 0 88.41 C 0 43.98 36.57 3.91 80.99 3.91 Z M 252.909 178.074 L 412.164 19.489 C 416.904 15.549 420.676 14.029 426.146 17.159 L 500.143 89.95 C 504.073 94.69 504.873 98.226 499.333 103.766 L 333.878 263.714 L 252.909 178.074 Z" style="stroke-miterlimit: 3;"/>
</svg>