<?xml version="1.0" encoding="utf-8"?>
<svg viewBox="0 0 32 32" style="enable-background:new 0 0 32 32;" xmlns="http://www.w3.org/2000/svg">
  <g transform="matrix(1, 0, 0, 1, 8.881784197001252e-16, 8.881784197001252e-16)">
    <g>
      <path d="M16,14c-3.8598633,0-7-3.140625-7-7s3.1401367-7,7-7s7,3.140625,7,7S19.8598633,14,16,14z M16,2&#10;&#9;&#9;&#9;c-2.7568359,0-5,2.2431641-5,5s2.2431641,5,5,5s5-2.2431641,5-5S18.7568359,2,16,2z" style="stroke-width: 3px; stroke-linecap: round;"/>
    </g>
    <g>
      <path d="M27,32c-0.5522461,0-1-0.4472656-1-1v-6.1152344c0-3.828125-3.1142578-6.9423828-6.9423828-6.9423828h-6.1152344&#10;&#9;&#9;&#9;C9.1142578,17.9423828,6,21.0566406,6,24.8847656V31c0,0.5527344-0.4477539,1-1,1s-1-0.4472656-1-1v-6.1152344&#10;&#9;&#9;&#9;c0-4.9306641,4.0117188-8.9423828,8.9423828-8.9423828h6.1152344C23.9882813,15.9423828,28,19.9541016,28,24.8847656V31&#10;&#9;&#9;&#9;C28,31.5527344,27.5522461,32,27,32z" style="stroke-width: 3px; stroke-linecap: round;"/>
    </g>
  </g>
  <path style="fill: rgb(216, 216, 216); stroke: rgb(0, 0, 0); stroke-width: 2px;" d="M 4.895 31.028 C 7.852 31.028 24.086 31.028 27.044 31.028" transform="matrix(1, 0, 0, 1, 8.881784197001252e-16, 8.881784197001252e-16)"/>
  <ellipse style="stroke: rgb(0, 0, 0); transform-origin: 16.296px 6.683px;" cx="16.296" cy="6.683" rx="6.302" ry="6.057" transform="matrix(0.999998927116, -0.001212000032, -0.000713000132, 1.000002026558, -0.602354015459, 0.381680044629)"/>
  <rect x="12.031" y="21.344" width="15.191" height="12.917" style="stroke: rgb(0, 0, 0); transform-origin: 19.6265px 27.8025px;" transform="matrix(0.999997913837, 0.001883000252, 0.002289999975, 1.000005960464, -3.704985128253, -3.30966216938)"/>
  <rect x="5.318" y="22.144" width="3.523" height="8.44" style="stroke: rgb(0, 0, 0);" transform="matrix(1, 0, 0, 1, 8.881784197001252e-16, 8.881784197001252e-16)"/>
  <rect x="22.417" y="21.557" width="3.523" height="8.44" style="stroke: rgb(0, 0, 0);" transform="matrix(1, 0, 0, 1, 8.881784197001252e-16, 8.881784197001252e-16)"/>
  <rect x="6.493" y="19.943" width="1.835" height="1.981" style="stroke: rgb(0, 0, 0);" transform="matrix(1, 0, 0, 1, 8.881784197001252e-16, 8.881784197001252e-16)"/>
  <rect x="23.519" y="19.429" width="1.688" height="2.348" style="stroke: rgb(0, 0, 0);" transform="matrix(1, 0, 0, 1, 8.881784197001252e-16, 8.881784197001252e-16)"/>
</svg>